<svg width="35" height="36" viewBox="0 0 35 36" fill="none" xmlns="http://www.w3.org/2000/svg">
<path d="M10.7812 31.3125C10.7812 31.5906 10.6988 31.8625 10.5443 32.0938C10.3897 32.325 10.1701 32.5053 9.91315 32.6117C9.65619 32.7181 9.37344 32.746 9.10065 32.6917C8.82787 32.6375 8.5773 32.5035 8.38063 32.3069C8.18396 32.1102 8.05003 31.8596 7.99577 31.5868C7.94151 31.3141 7.96936 31.0313 8.07579 30.7744C8.18223 30.5174 8.36247 30.2978 8.59373 30.1432C8.82499 29.9887 9.09687 29.9062 9.375 29.9062C9.74796 29.9062 10.1056 30.0544 10.3694 30.3181C10.6331 30.5819 10.7812 30.9395 10.7812 31.3125ZM21.5625 29.9062C21.2844 29.9062 21.0125 29.9887 20.7812 30.1432C20.55 30.2978 20.3697 30.5174 20.2633 30.7744C20.1569 31.0313 20.129 31.3141 20.1833 31.5868C20.2375 31.8596 20.3715 32.1102 20.5681 32.3069C20.7648 32.5035 21.0154 32.6375 21.2882 32.6917C21.5609 32.746 21.8437 32.7181 22.1006 32.6117C22.3576 32.5053 22.5772 32.325 22.7318 32.0938C22.8863 31.8625 22.9688 31.5906 22.9688 31.3125C22.9688 30.9395 22.8206 30.5819 22.5569 30.3181C22.2931 30.0544 21.9355 29.9062 21.5625 29.9062ZM26.4375 14.5664L23.3437 25.3945C23.1983 25.8825 22.9 26.311 22.4929 26.6169C22.0858 26.9227 21.5912 27.0899 21.082 27.0938H9.85547C9.34626 27.0899 8.85172 26.9227 8.44459 26.6169C8.03746 26.311 7.73923 25.8825 7.59375 25.3945L4.51172 14.5781V14.5547L3.36328 10.5586C3.33329 10.4606 3.27277 10.3748 3.19055 10.3137C3.10833 10.2525 3.00871 10.2193 2.90625 10.2188H0.9375C0.81318 10.2188 0.693951 10.1694 0.606044 10.0815C0.518136 9.99355 0.46875 9.87432 0.46875 9.75C0.46875 9.62568 0.518136 9.50645 0.606044 9.41854C0.693951 9.33064 0.81318 9.28125 0.9375 9.28125H2.90625C3.21256 9.28157 3.51052 9.38106 3.75557 9.56484C4.00061 9.74863 4.17956 10.0068 4.26563 10.3008L5.30859 13.9688H25.9805C26.0534 13.9678 26.1255 13.9843 26.1907 14.017C26.256 14.0496 26.3125 14.0973 26.3555 14.1562C26.4 14.2136 26.4305 14.2805 26.4448 14.3517C26.459 14.4228 26.4565 14.4964 26.4375 14.5664V14.5664ZM25.3594 14.9062H5.57812L8.49609 25.1367C8.58216 25.4307 8.76111 25.6889 9.00615 25.8727C9.2512 26.0564 9.54916 26.1559 9.85547 26.1562H21.082C21.3883 26.1559 21.6863 26.0564 21.9313 25.8727C22.1764 25.6889 22.3553 25.4307 22.4414 25.1367L25.3594 14.9062Z" fill="#FFD333"/>
</svg>
