<svg width="27" height="24" viewBox="0 0 27 24" fill="none" xmlns="http://www.w3.org/2000/svg">
<path d="M10.7812 22.3125C10.7812 22.5906 10.6988 22.8625 10.5443 23.0938C10.3897 23.325 10.1701 23.5053 9.91315 23.6117C9.65619 23.7181 9.37344 23.746 9.10065 23.6917C8.82787 23.6375 8.5773 23.5035 8.38063 23.3069C8.18396 23.1102 8.05003 22.8596 7.99577 22.5868C7.94151 22.3141 7.96936 22.0313 8.07579 21.7744C8.18223 21.5174 8.36247 21.2978 8.59373 21.1432C8.82499 20.9887 9.09687 20.9062 9.375 20.9062C9.74796 20.9062 10.1056 21.0544 10.3694 21.3181C10.6331 21.5819 10.7812 21.9395 10.7812 22.3125ZM21.5625 20.9062C21.2844 20.9062 21.0125 20.9887 20.7812 21.1432C20.55 21.2978 20.3697 21.5174 20.2633 21.7744C20.1569 22.0313 20.129 22.3141 20.1833 22.5868C20.2375 22.8596 20.3715 23.1102 20.5681 23.3069C20.7648 23.5035 21.0154 23.6375 21.2882 23.6917C21.5609 23.746 21.8437 23.7181 22.1006 23.6117C22.3576 23.5053 22.5772 23.325 22.7318 23.0938C22.8863 22.8625 22.9688 22.5906 22.9688 22.3125C22.9688 21.9395 22.8206 21.5819 22.5569 21.3181C22.2931 21.0544 21.9355 20.9062 21.5625 20.9062ZM26.4375 5.56641L23.3437 16.3945C23.1983 16.8825 22.9 17.311 22.4929 17.6169C22.0858 17.9227 21.5912 18.0899 21.082 18.0938H9.85547C9.34626 18.0899 8.85172 17.9227 8.44459 17.6169C8.03746 17.311 7.73923 16.8825 7.59375 16.3945L4.51172 5.57812V5.55469L3.36328 1.55859C3.33329 1.46062 3.27277 1.37479 3.19055 1.31365C3.10833 1.25252 3.00871 1.21926 2.90625 1.21875H0.9375C0.81318 1.21875 0.693951 1.16936 0.606044 1.08146C0.518136 0.993549 0.46875 0.87432 0.46875 0.75C0.46875 0.62568 0.518136 0.506451 0.606044 0.418544C0.693951 0.330636 0.81318 0.28125 0.9375 0.28125H2.90625C3.21256 0.281566 3.51052 0.38106 3.75557 0.564843C4.00061 0.748626 4.17956 1.00682 4.26563 1.30078L5.30859 4.96875H25.9805C26.0534 4.96781 26.1255 4.98434 26.1907 5.01696C26.256 5.04958 26.3125 5.09734 26.3555 5.15625C26.4 5.2136 26.4305 5.2805 26.4448 5.35167C26.459 5.42285 26.4565 5.49636 26.4375 5.56641V5.56641ZM25.3594 5.90625H5.57812L8.49609 16.1367C8.58216 16.4307 8.76111 16.6889 9.00615 16.8727C9.2512 17.0564 9.54916 17.1559 9.85547 17.1562H21.082C21.3883 17.1559 21.6863 17.0564 21.9313 16.8727C22.1764 16.6889 22.3553 16.4307 22.4414 16.1367L25.3594 5.90625Z" fill="#FFD333"/>
</svg>
